<?xml version="1.0" encoding="UTF-8"?>
<svg version="1.1" xmlns="http://www.w3.org/2000/svg" width="128" height="128">
<path d="M0 0 C0.75410156 0.00322266 1.50820312 0.00644531 2.28515625 0.00976562 C3.06246094 0.01814453 3.83976562 0.02652344 4.640625 0.03515625 C5.43339844 0.03966797 6.22617188 0.04417969 7.04296875 0.04882812 C8.99222008 0.0605706 10.94143238 0.07850479 12.890625 0.09765625 C14.34131523 25.85546724 3.7339334 49.08721217 -13.2421875 68.33203125 C-15.3130252 70.29022924 -17.5163942 71.6384783 -19.921875 73.16015625 C-23.15130144 75.52368252 -23.9983153 76.63585451 -24.94921875 80.58984375 C-25.22302375 83.22358705 -25.46646016 85.86066163 -25.6796875 88.5 C-26.57294928 95.97903728 -31.07155014 100.81778075 -36.73828125 105.48828125 C-43.6429857 110.17483517 -50.76152013 112.9003346 -59.109375 112.09765625 C-59.40536872 103.89205255 -58.54732354 96.17327798 -57.109375 88.09765625 C-57.99109375 88.18660156 -58.8728125 88.27554688 -59.78125 88.3671875 C-64.0206947 88.02385219 -65.32876452 86.69956235 -68.359375 83.78515625 C-69.63554688 82.58439453 -69.63554688 82.58439453 -70.9375 81.359375 C-73.70876776 78.47346846 -75.07481387 76.97896509 -75.234375 72.91015625 C-75.193125 71.98203125 -75.151875 71.05390625 -75.109375 70.09765625 C-76.45128906 70.31421875 -76.45128906 70.31421875 -77.8203125 70.53515625 C-84.98218838 71.634634 -91.86324573 72.39818696 -99.109375 72.09765625 C-99.98305162 63.01141939 -96.32058449 53.75826297 -90.65234375 46.625 C-84.91618893 40.94693282 -79.46996919 38.92828212 -71.484375 38.34765625 C-66.19971007 37.88950961 -66.19971007 37.88950961 -61.86328125 35.1484375 C-60.61478308 33.43812925 -59.40149248 31.70173563 -58.21875 29.9453125 C-47.00032162 14.80043418 -25.68473069 6.0114423 -8.109375 1.09765625 C-7.47217529 0.91734863 -6.83497559 0.73704102 -6.1784668 0.55126953 C-4.04776931 0.08415025 -2.17819194 -0.01650145 0 0 Z M-35.109375 32.09765625 C-36.72367423 35.32625472 -36.70508157 38.60759278 -36.109375 42.09765625 C-34.37335395 45.1227377 -32.27357363 47.51555694 -29.109375 49.09765625 C-23.98567102 49.7049447 -23.98567102 49.7049447 -19.28515625 48.05078125 C-15.48184756 44.9197281 -14.22274133 43.23131957 -13.734375 38.34765625 C-13.75878725 34.99707557 -14.35336146 33.24871093 -16.484375 30.66015625 C-20.0142336 27.2143419 -22.0377402 26.70209789 -27.00390625 26.73828125 C-30.72530953 27.37347439 -32.51250349 29.43744641 -35.109375 32.09765625 Z " fill="#FFFFFF" transform="translate(107.109375,7.90234375)"/>
<path d="M0 0 C-0.5259375 1.5159375 -0.5259375 1.5159375 -1.0625 3.0625 C-2.16620104 6.97706556 -2.06929438 10.02833514 -1 14 C0.44148975 16.18547684 0.44148975 16.18547684 3 17 C7.07099176 16.9665627 11.09876078 16.13786144 15 15 C15.33947576 18.56449547 15.08266289 20.80318359 13.6875 24.125 C8.90590429 29.24019541 1.80420503 30.93553848 -5 32 C-7.10323534 32.0659735 -9.20835724 32.08562245 -11.3125 32.0625 C-12.38113281 32.05347656 -13.44976562 32.04445312 -14.55078125 32.03515625 C-15.35902344 32.02355469 -16.16726562 32.01195312 -17 32 C-17.48846146 21.79658281 -16.8979509 11.68226275 -11 3 C-7.29301459 0.09452495 -4.65754061 -0.32494469 0 0 Z " fill="#FFFFFF" transform="translate(29,84)"/>
</svg>
